<svg width="401" height="191" viewBox="0 0 401 191" fill="none" xmlns="http://www.w3.org/2000/svg">
<path d="M163.789 57.0359H114.264C111.513 46.5306 105.51 42.5286 92.7535 42.5286C82.4983 42.5286 75.4948 46.7807 75.4948 53.284C75.4948 59.0369 77.7459 60.0374 101.758 66.2906C134.024 74.7949 143.029 78.0465 152.534 85.05C164.29 93.8044 170.793 107.061 170.793 122.069C170.793 138.577 162.539 154.085 148.281 164.34C134.775 174.095 118.266 178.597 96.5054 178.597C49.9819 178.597 20.2169 156.086 20.467 120.818H71.2426C73.4938 134.825 80.9975 140.328 97.0056 140.328C111.013 140.328 119.767 135.325 119.767 127.321C119.767 122.569 117.266 119.818 110.763 117.566C108.011 116.566 103.759 115.065 87.5008 110.563C63.989 103.809 52.233 99.0571 43.7287 93.0541C31.4726 84.2997 25.2194 71.7933 25.2194 55.7853C25.2194 40.5276 31.2224 27.521 42.228 18.5165C54.4842 8.76155 70.7424 4.25928 95.2547 4.25928C122.268 4.25928 141.028 11.0127 152.534 25.2699C159.287 33.7742 162.289 42.0283 163.789 57.0359Z" fill="#F1E4E8"/>
<g filter="url(#filter0_bd_60_14)">
<circle cx="95.0653" cy="91.0653" r="91.0653" fill="url(#paint0_radial_60_14)" shape-rendering="crispEdges"/>
</g>
<g filter="url(#filter1_bd_60_14)">
<circle cx="95.0653" cy="91.0653" r="91.0653" fill="url(#paint1_radial_60_14)" shape-rendering="crispEdges"/>
</g>
<path d="M83.3288 108.074C83.6845 111.078 84.4553 113.212 85.641 114.477C87.7358 116.73 91.6093 117.856 97.2613 117.856C100.581 117.856 103.21 117.362 105.147 116.374C107.123 115.386 108.111 113.904 108.111 111.927C108.111 110.03 107.32 108.588 105.739 107.599C104.158 106.611 98.289 104.912 88.1311 102.501C80.819 100.683 75.661 98.4099 72.6571 95.6827C69.6532 92.995 68.1512 89.1216 68.1512 84.0624C68.1512 78.0941 70.4832 72.9757 75.1472 68.707C79.8506 64.3988 86.4513 62.2447 94.9491 62.2447C103.012 62.2447 109.573 63.8652 114.633 67.1062C119.731 70.3077 122.656 75.861 123.407 83.766H106.51C106.273 81.5921 105.66 79.8728 104.672 78.608C102.815 76.3155 99.6526 75.1693 95.1863 75.1693C91.5105 75.1693 88.882 75.7424 87.3011 76.8886C85.7596 78.0349 84.9888 79.3787 84.9888 80.9202C84.9888 82.8569 85.8189 84.26 87.4789 85.1296C89.139 86.0387 95.0084 87.5999 105.087 89.8133C111.806 91.3943 116.846 93.7855 120.206 96.987C123.526 100.228 125.186 104.279 125.186 109.141C125.186 115.544 122.794 120.781 118.012 124.852C113.269 128.884 105.917 130.899 95.957 130.899C85.7991 130.899 78.2894 128.765 73.4278 124.496C68.6058 120.188 66.1948 114.714 66.1948 108.074H83.3288Z" fill="#F1E4E8"/>
<path d="M131.114 76.7108V64.6754H140.126V46.6521H156.845V64.6754H167.339V76.7108H156.845V110.86C156.845 113.508 157.181 115.168 157.853 115.84C158.525 116.473 160.58 116.789 164.019 116.789C164.533 116.789 165.066 116.789 165.62 116.789C166.212 116.749 166.786 116.71 167.339 116.67V129.299L159.335 129.595C151.351 129.872 145.897 128.488 142.972 125.445C141.075 123.508 140.126 120.524 140.126 116.493V76.7108H131.114Z" fill="#F1E4E8"/>
<path d="M195.026 64.0826V103.034C195.026 106.71 195.461 109.477 196.33 111.335C197.872 114.615 200.896 116.255 205.401 116.255C211.172 116.255 215.125 113.923 217.259 109.26C218.366 106.73 218.919 103.39 218.919 99.24V64.0826H236.053V128.706H219.63V119.576C219.472 119.773 219.077 120.366 218.445 121.354C217.812 122.342 217.061 123.212 216.192 123.963C213.544 126.334 210.974 127.955 208.484 128.824C206.034 129.694 203.148 130.129 199.828 130.129C190.263 130.129 183.821 126.69 180.501 119.813C178.643 116.018 177.714 110.426 177.714 103.034V64.0826H195.026Z" fill="#F1E4E8"/>
<path d="M276.25 62.5411C280.163 62.5411 283.641 63.4107 286.684 65.1497C289.728 66.8493 292.198 69.2208 294.095 72.2642V41.4348H311.229V128.706H294.807V119.753C292.396 123.587 289.649 126.374 286.566 128.113C283.483 129.852 279.649 130.722 275.064 130.722C267.515 130.722 261.151 127.678 255.974 121.591C250.835 115.465 248.266 107.619 248.266 98.0542C248.266 87.0268 250.796 78.3511 255.855 72.0271C260.954 65.7031 267.752 62.5411 276.25 62.5411ZM279.926 116.493C284.708 116.493 288.344 114.714 290.834 111.157C293.325 107.599 294.57 102.995 294.57 97.3428C294.57 89.4378 292.574 83.7857 288.582 80.3866C286.131 78.3313 283.285 77.3036 280.044 77.3036C275.104 77.3036 271.467 79.1811 269.135 82.9359C266.843 86.6513 265.697 91.2757 265.697 96.8092C265.697 102.777 266.863 107.56 269.195 111.157C271.566 114.714 275.143 116.493 279.926 116.493Z" fill="#F1E4E8"/>
<path d="M329.253 141.097L331.387 141.215C333.047 141.294 334.628 141.235 336.13 141.038C337.632 140.84 338.897 140.385 339.924 139.674C340.913 139.002 341.822 137.599 342.652 135.465C343.521 133.33 343.877 132.026 343.719 131.552L320.004 64.0826H338.798L352.908 111.75L366.248 64.0826H384.212L362.039 127.639C357.77 139.891 354.39 147.48 351.9 150.405C349.41 153.369 344.43 154.851 336.96 154.851C335.458 154.851 334.253 154.832 333.343 154.792C332.434 154.792 331.071 154.733 329.253 154.614V141.097Z" fill="#F1E4E8"/>
<path d="M394.022 64.0921C392.616 64.0921 391.418 64.6011 390.428 65.6193C389.454 66.6153 388.967 67.7967 388.967 69.1635C388.967 70.5801 389.462 71.7836 390.453 72.7741C391.438 73.7646 392.627 74.2598 394.022 74.2598C395.411 74.2598 396.598 73.7618 397.582 72.7658C398.567 71.7642 399.06 70.5635 399.06 69.1635C399.06 67.8023 398.57 66.6209 397.591 65.6193C396.6 64.6011 395.411 64.0921 394.022 64.0921ZM400.139 69.1635C400.139 70.901 399.527 72.3646 398.305 73.5543C397.115 74.7053 395.687 75.2808 394.022 75.2808C392.301 75.2808 390.851 74.6915 389.672 73.5128C388.494 72.3342 387.904 70.8844 387.904 69.1635C387.904 67.3762 388.541 65.8904 389.813 64.7063C391.009 63.5996 392.411 63.0462 394.022 63.0462C395.709 63.0462 397.151 63.6438 398.346 64.8391C399.541 66.0343 400.139 67.4758 400.139 69.1635ZM397.109 70.1927C396.943 71.1556 396.567 71.8306 395.981 72.218C395.4 72.5998 394.796 72.7907 394.171 72.7907C393.241 72.7907 392.436 72.4587 391.756 71.7947C391.081 71.1307 390.743 70.2591 390.743 69.1801C390.743 68.173 391.034 67.3153 391.615 66.607C392.201 65.8987 393.004 65.5446 394.022 65.5446C394.669 65.5446 395.231 65.6774 395.707 65.943C396.481 66.3746 396.963 67.1299 397.151 68.209L395.59 68.1841C395.496 67.6861 395.297 67.3513 394.993 67.1797C394.738 67.0193 394.459 66.939 394.154 66.939C393.695 66.939 393.319 67.1299 393.026 67.5118C392.732 67.888 392.586 68.458 392.586 69.2216C392.586 69.9797 392.746 70.5303 393.067 70.8733C393.394 71.2164 393.784 71.388 394.237 71.388C394.652 71.388 394.965 71.2745 395.175 71.0477C395.391 70.8208 395.53 70.5358 395.59 70.1927H397.109Z" fill="#F1E4E8"/>
<defs>
<filter id="filter0_bd_60_14" x="0" y="-2" width="190.131" height="192.131" filterUnits="userSpaceOnUse" color-interpolation-filters="sRGB">
<feFlood flood-opacity="0" result="BackgroundImageFix"/>
<feGaussianBlur in="BackgroundImageFix" stdDeviation="1"/>
<feComposite in2="SourceAlpha" operator="in" result="effect1_backgroundBlur_60_14"/>
<feColorMatrix in="SourceAlpha" type="matrix" values="0 0 0 0 0 0 0 0 0 0 0 0 0 0 0 0 0 0 127 0" result="hardAlpha"/>
<feOffset dy="4"/>
<feGaussianBlur stdDeviation="2"/>
<feComposite in2="hardAlpha" operator="out"/>
<feColorMatrix type="matrix" values="0 0 0 0 0 0 0 0 0 0 0 0 0 0 0 0 0 0 0.25 0"/>
<feBlend mode="normal" in2="effect1_backgroundBlur_60_14" result="effect2_dropShadow_60_14"/>
<feBlend mode="normal" in="SourceGraphic" in2="effect2_dropShadow_60_14" result="shape"/>
</filter>
<filter id="filter1_bd_60_14" x="0" y="-2" width="190.131" height="192.131" filterUnits="userSpaceOnUse" color-interpolation-filters="sRGB">
<feFlood flood-opacity="0" result="BackgroundImageFix"/>
<feGaussianBlur in="BackgroundImageFix" stdDeviation="1"/>
<feComposite in2="SourceAlpha" operator="in" result="effect1_backgroundBlur_60_14"/>
<feColorMatrix in="SourceAlpha" type="matrix" values="0 0 0 0 0 0 0 0 0 0 0 0 0 0 0 0 0 0 127 0" result="hardAlpha"/>
<feOffset dy="4"/>
<feGaussianBlur stdDeviation="2"/>
<feComposite in2="hardAlpha" operator="out"/>
<feColorMatrix type="matrix" values="0 0 0 0 0 0 0 0 0 0 0 0 0 0 0 0 0 0 0.25 0"/>
<feBlend mode="normal" in2="effect1_backgroundBlur_60_14" result="effect2_dropShadow_60_14"/>
<feBlend mode="normal" in="SourceGraphic" in2="effect2_dropShadow_60_14" result="shape"/>
</filter>
<radialGradient id="paint0_radial_60_14" cx="0" cy="0" r="1" gradientUnits="userSpaceOnUse" gradientTransform="translate(34.3551 30.3551) rotate(47.1816) scale(180.431)">
<stop offset="0.085" stop-color="#D7263D"/>
<stop offset="0.695" stop-color="#02182B" stop-opacity="0.3"/>
<stop offset="1" stop-color="#01BAEF"/>
</radialGradient>
<radialGradient id="paint1_radial_60_14" cx="0" cy="0" r="1" gradientUnits="userSpaceOnUse" gradientTransform="translate(34.3551 30.3551) rotate(47.1816) scale(180.431)">
<stop offset="0.085" stop-color="#D7263D"/>
<stop offset="0.695" stop-color="#02182B" stop-opacity="0.3"/>
<stop offset="1" stop-color="#01BAEF"/>
</radialGradient>
</defs>
</svg>
