<svg width="276" height="69" viewBox="0 0 276 69" fill="none" xmlns="http://www.w3.org/2000/svg">
<path d="M59.0007 19.0908H41.9538C41.0067 15.5745 38.9404 14.235 34.5496 14.235C31.0197 14.235 28.609 15.6582 28.609 17.835C28.609 19.7606 29.3839 20.0955 37.649 22.1885C48.7553 25.035 51.8547 26.1234 55.1264 28.4676C59.1728 31.3978 61.4113 35.835 61.4113 40.8583C61.4113 46.3839 58.5702 51.5746 53.6627 55.0071C49.0136 58.2722 43.3313 59.7792 35.841 59.7792C19.8273 59.7792 9.58192 52.2443 9.66802 40.4397H27.1454C27.9202 45.128 30.5031 46.9699 36.0132 46.9699C40.8345 46.9699 43.8479 45.2955 43.8479 42.6164C43.8479 41.0257 42.9869 40.1048 40.7484 39.3513C39.8014 39.0164 38.3378 38.5141 32.7416 37.0071C24.6486 34.7466 20.6021 33.1559 17.6749 31.1466C13.4562 28.2164 11.3038 24.0303 11.3038 18.6722C11.3038 13.5652 13.3701 9.21171 17.1583 6.19776C21.377 2.93264 26.9732 1.42566 35.4105 1.42566C44.7088 1.42566 51.166 3.68613 55.1264 8.45823C57.4509 11.3047 58.4841 14.0675 59.0007 19.0908Z" fill="#641930" fill-opacity="0.5"/>
<g filter="url(#filter0_bd_138_217)">
<ellipse cx="35.3454" cy="30.481" rx="31.3454" ry="30.481" fill="url(#paint0_radial_138_217)" shape-rendering="crispEdges"/>
</g>
<g filter="url(#filter1_bd_138_217)">
<ellipse cx="35.3454" cy="30.481" rx="31.3454" ry="30.481" fill="url(#paint1_radial_138_217)" shape-rendering="crispEdges"/>
</g>
<path d="M31.3059 36.1736C31.4283 37.1791 31.6936 37.8934 32.1018 38.3168C32.8228 39.0709 34.1561 39.4479 36.1016 39.4479C37.2444 39.4479 38.1491 39.2826 38.8157 38.9518C39.4959 38.6211 39.8361 38.125 39.8361 37.4635C39.8361 36.8285 39.564 36.3456 39.0198 36.0148C38.4756 35.6841 36.4553 35.1152 32.9589 34.3082C30.442 33.6997 28.6665 32.939 27.6326 32.0261C26.5986 31.1265 26.0816 29.83 26.0816 28.1366C26.0816 26.139 26.8843 24.4257 28.4897 22.9969C30.1087 21.5549 32.3806 20.8339 35.3057 20.8339C38.081 20.8339 40.3394 21.3763 42.0809 22.4611C43.8359 23.5327 44.8426 25.3915 45.1011 28.0374H39.2851C39.2034 27.3098 38.9926 26.7343 38.6525 26.311C38.013 25.5436 36.9246 25.16 35.3873 25.16C34.1221 25.16 33.2173 25.3518 32.6732 25.7355C32.1426 26.1191 31.8773 26.5689 31.8773 27.0849C31.8773 27.7331 32.163 28.2028 32.7344 28.4938C33.3058 28.7981 35.3261 29.3207 38.7953 30.0615C41.1081 30.5907 42.8427 31.3911 43.9991 32.4627C45.1419 33.5475 45.7133 34.9036 45.7133 36.5308C45.7133 38.674 44.8902 40.4269 43.2441 41.7896C41.6115 43.139 39.081 43.8137 35.6526 43.8137C32.1562 43.8137 29.5713 43.0993 27.8979 41.6705C26.2381 40.2285 25.4082 38.3962 25.4082 36.1736H31.3059Z" fill="#E7E7E7"/>
<path d="M47.754 25.6759V21.6475H50.8559V15.6148H56.6108V21.6475H60.2228V25.6759H56.6108V37.1063C56.6108 37.9927 56.7264 38.5483 56.9577 38.7732C57.189 38.9849 57.8964 39.0907 59.08 39.0907C59.2569 39.0907 59.4405 39.0907 59.631 39.0907C59.8351 39.0775 60.0324 39.0643 60.2228 39.051V43.2779L57.4679 43.3771C54.7197 43.4697 52.8422 43.0067 51.8355 41.988C51.1824 41.3398 50.8559 40.3409 50.8559 38.9915V25.6759H47.754Z" fill="#E7E7E7"/>
<path d="M69.753 21.4491V34.4868C69.753 35.7172 69.9026 36.6433 70.2019 37.265C70.7325 38.3631 71.7733 38.9121 73.3242 38.9121C75.3105 38.9121 76.671 38.1316 77.4056 36.5705C77.7866 35.7238 77.9771 34.6059 77.9771 33.2168V21.4491H83.8747V43.0794H78.2219V40.0234C78.1675 40.0896 78.0315 40.288 77.8138 40.6187C77.5961 40.9495 77.3376 41.2405 77.0383 41.4919C76.1268 42.2857 75.2425 42.8281 74.3854 43.1191C73.5419 43.4102 72.5487 43.5557 71.4059 43.5557C68.1136 43.5557 65.896 42.4047 64.7532 40.1028C64.1138 38.8327 63.7941 36.9608 63.7941 34.4868V21.4491H69.753Z" fill="#E7E7E7"/>
<path d="M97.7108 20.9331C99.0576 20.9331 100.255 21.2242 101.302 21.8063C102.35 22.3751 103.2 23.1689 103.853 24.1876V13.8685H109.751V43.0794H104.098V40.0829C103.268 41.3662 102.323 42.2989 101.262 42.881C100.2 43.4631 98.8808 43.7542 97.3026 43.7542C94.7041 43.7542 92.5137 42.7355 90.7315 40.6981C88.9629 38.6475 88.0786 36.0215 88.0786 32.8199C88.0786 29.1289 88.9493 26.225 90.6907 24.1082C92.4457 21.9915 94.7857 20.9331 97.7108 20.9331ZM98.976 38.9915C100.622 38.9915 101.874 38.3962 102.731 37.2055C103.588 36.0148 104.017 34.4736 104.017 32.5818C104.017 29.9359 103.33 28.044 101.955 26.9063C101.112 26.2183 100.132 25.8744 99.0168 25.8744C97.3162 25.8744 96.0646 26.5028 95.2619 27.7596C94.4728 29.0032 94.0783 30.551 94.0783 32.4032C94.0783 34.4008 94.4796 36.0016 95.2823 37.2055C96.0986 38.3962 97.3298 38.9915 98.976 38.9915Z" fill="#E7E7E7"/>
<path d="M115.955 47.2269L116.689 47.2666C117.261 47.2931 117.805 47.2732 118.322 47.2071C118.839 47.1409 119.274 46.9888 119.628 46.7507C119.968 46.5257 120.281 46.0561 120.567 45.3417C120.866 44.6273 120.989 44.1907 120.934 44.032L112.771 21.4491H119.24L124.097 37.404L128.689 21.4491H134.872L127.24 42.7222C125.771 46.8234 124.607 49.3635 123.75 50.3425C122.893 51.3347 121.179 51.8308 118.608 51.8308C118.091 51.8308 117.676 51.8242 117.363 51.811C117.05 51.811 116.581 51.7911 115.955 51.7514V47.2269Z" fill="#E7E7E7"/>
<path d="M142.851 36.1736C142.974 37.1791 143.239 37.8934 143.647 38.3168C144.368 39.0709 145.702 39.4479 147.647 39.4479C148.79 39.4479 149.695 39.2826 150.361 38.9518C151.041 38.6211 151.382 38.125 151.382 37.4635C151.382 36.8285 151.11 36.3456 150.565 36.0148C150.021 35.6841 148.001 35.1152 144.504 34.3082C141.988 33.6997 140.212 32.939 139.178 32.0261C138.144 31.1265 137.627 29.83 137.627 28.1366C137.627 26.139 138.43 24.4257 140.035 22.9969C141.654 21.5549 143.926 20.8339 146.851 20.8339C149.627 20.8339 151.885 21.3763 153.626 22.4611C155.381 23.5327 156.388 25.3915 156.647 28.0374H150.831C150.749 27.3098 150.538 26.7343 150.198 26.311C149.559 25.5436 148.47 25.16 146.933 25.16C145.668 25.16 144.763 25.3518 144.219 25.7355C143.688 26.1191 143.423 26.5689 143.423 27.0849C143.423 27.7331 143.709 28.2028 144.28 28.4938C144.851 28.7981 146.872 29.3207 150.341 30.0615C152.654 30.5907 154.388 31.3911 155.545 32.4627C156.687 33.5475 157.259 34.9036 157.259 36.5308C157.259 38.674 156.436 40.4269 154.79 41.7896C153.157 43.139 150.627 43.8137 147.198 43.8137C143.702 43.8137 141.117 43.0993 139.443 41.6705C137.784 40.2285 136.954 38.3962 136.954 36.1736H142.851Z" fill="#E7E7E7"/>
<path d="M176.911 32.2643C176.911 30.5973 176.516 29.1222 175.727 27.839C174.952 26.5557 173.687 25.9141 171.932 25.9141C169.823 25.9141 168.374 26.8864 167.585 28.8312C167.177 29.8631 166.973 31.1728 166.973 32.7604C166.973 35.274 167.66 37.0401 169.034 38.0588C169.85 38.6541 170.816 38.9518 171.932 38.9518C173.551 38.9518 174.782 38.3433 175.625 37.1261C176.482 35.909 176.911 34.2884 176.911 32.2643ZM173.605 20.9728C176.204 20.9728 178.401 21.9055 180.197 23.7709C182.006 25.6362 182.911 28.3748 182.911 31.9864C182.911 35.7966 182.026 38.7005 180.258 40.6981C178.503 42.6958 176.238 43.6946 173.462 43.6946C171.694 43.6946 170.224 43.2647 169.054 42.4047C168.415 41.9285 167.789 41.2339 167.177 40.3211V51.5927H161.422V21.4491H166.993V24.644C167.619 23.7047 168.286 22.9639 168.993 22.4215C170.285 21.4557 171.823 20.9728 173.605 20.9728Z" fill="#E7E7E7"/>
<path d="M199.4 20.8934C200.774 20.8934 202.019 21.125 203.134 21.588C204.263 22.051 205.188 22.7588 205.91 23.7113C206.522 24.5183 206.896 25.3518 207.032 26.2117C207.168 27.0584 207.236 28.4475 207.236 30.379V43.0794H201.298V29.9226C201.298 28.7584 201.093 27.8191 200.685 27.1047C200.155 26.0993 199.148 25.5966 197.665 25.5966C196.128 25.5966 194.958 26.0993 194.155 27.1047C193.366 28.0969 192.971 29.5191 192.971 31.3713V43.0794H187.176V13.9281H192.971V24.267C193.815 23.0102 194.788 22.137 195.89 21.6475C197.005 21.1448 198.175 20.8934 199.4 20.8934Z" fill="#E7E7E7"/>
<path d="M221.46 25.537C220.113 25.537 219.065 25.9471 218.317 26.7674C217.582 27.5876 217.12 28.6989 216.929 30.1012H225.97C225.875 28.6063 225.405 27.4752 224.562 26.7078C223.732 25.9273 222.698 25.537 221.46 25.537ZM221.46 20.8736C223.31 20.8736 224.977 21.2109 226.46 21.8857C227.942 22.5604 229.167 23.6253 230.133 25.0806C231.004 26.3639 231.568 27.8522 231.827 29.5456C231.976 30.5378 232.038 31.9666 232.01 33.832H216.787C216.868 36.0016 217.569 37.523 218.888 38.3962C219.691 38.9386 220.657 39.2098 221.786 39.2098C222.984 39.2098 223.956 38.8791 224.705 38.2176C225.113 37.8604 225.473 37.3643 225.786 36.7292H231.725C231.575 38.0125 230.888 39.3156 229.663 40.6386C227.759 42.7421 225.092 43.7938 221.664 43.7938C218.834 43.7938 216.338 42.9075 214.174 41.1347C212.011 39.3619 210.93 36.4779 210.93 32.4825C210.93 28.7386 211.902 25.8678 213.848 23.8701C215.807 21.8724 218.344 20.8736 221.46 20.8736Z" fill="#E7E7E7"/>
<path d="M248.03 20.9331C248.139 20.9331 248.227 20.9397 248.295 20.953C248.377 20.953 248.547 20.9596 248.805 20.9728V26.7674C248.438 26.7277 248.112 26.7012 247.826 26.688C247.54 26.6748 247.309 26.6681 247.132 26.6681C244.792 26.6681 243.221 27.409 242.418 28.8907C241.969 29.7242 241.745 31.0075 241.745 32.7405V43.0794H235.888V21.4491H241.438V25.2195C242.336 23.7775 243.119 22.7919 243.785 22.2627C244.874 21.3763 246.289 20.9331 248.03 20.9331Z" fill="#E7E7E7"/>
<path d="M261.009 25.537C259.662 25.537 258.614 25.9471 257.866 26.7674C257.132 27.5876 256.669 28.6989 256.478 30.1012H265.519C265.424 28.6063 264.954 27.4752 264.111 26.7078C263.281 25.9273 262.247 25.537 261.009 25.537ZM261.009 20.8736C262.859 20.8736 264.526 21.2109 266.009 21.8857C267.492 22.5604 268.716 23.6253 269.682 25.0806C270.553 26.3639 271.117 27.8522 271.376 29.5456C271.525 30.5378 271.587 31.9666 271.559 33.832H256.336C256.417 36.0016 257.118 37.523 258.438 38.3962C259.24 38.9386 260.206 39.2098 261.335 39.2098C262.533 39.2098 263.505 38.8791 264.254 38.2176C264.662 37.8604 265.022 37.3643 265.335 36.7292H271.274C271.124 38.0125 270.437 39.3156 269.213 40.6386C267.308 42.7421 264.641 43.7938 261.213 43.7938C258.383 43.7938 255.887 42.9075 253.724 41.1347C251.56 39.3619 250.479 36.4779 250.479 32.4825C250.479 28.7386 251.452 25.8678 253.397 23.8701C255.356 21.8724 257.893 20.8736 261.009 20.8736Z" fill="#E7E7E7"/>
<path d="M273.66 21.4527C273.177 21.4527 272.764 21.6231 272.423 21.9639C272.088 22.2973 271.92 22.6927 271.92 23.1502C271.92 23.6244 272.091 24.0272 272.432 24.3587C272.771 24.6903 273.18 24.856 273.66 24.856C274.138 24.856 274.547 24.6893 274.886 24.3559C275.225 24.0207 275.394 23.6188 275.394 23.1502C275.394 22.6946 275.226 22.2991 274.889 21.9639C274.548 21.6231 274.138 21.4527 273.66 21.4527ZM275.766 23.1502C275.766 23.7318 275.555 24.2217 275.135 24.6199C274.725 25.0051 274.234 25.1977 273.66 25.1977C273.068 25.1977 272.569 25.0005 272.163 24.606C271.758 24.2115 271.555 23.7262 271.555 23.1502C271.555 22.552 271.774 22.0547 272.212 21.6583C272.623 21.2879 273.106 21.1027 273.66 21.1027C274.241 21.1027 274.737 21.3027 275.149 21.7028C275.56 22.1028 275.766 22.5853 275.766 23.1502ZM274.723 23.4947C274.666 23.817 274.536 24.0429 274.335 24.1726C274.135 24.3004 273.927 24.3643 273.712 24.3643C273.392 24.3643 273.115 24.2532 272.88 24.0309C272.648 23.8086 272.532 23.5169 272.532 23.1558C272.532 22.8187 272.632 22.5316 272.832 22.2945C273.034 22.0574 273.31 21.9389 273.66 21.9389C273.883 21.9389 274.076 21.9834 274.24 22.0723C274.507 22.2167 274.673 22.4695 274.737 22.8307L274.2 22.8224C274.168 22.6557 274.099 22.5436 273.995 22.4862C273.907 22.4325 273.811 22.4056 273.706 22.4056C273.548 22.4056 273.418 22.4695 273.317 22.5973C273.217 22.7233 273.166 22.9141 273.166 23.1697C273.166 23.4234 273.221 23.6077 273.332 23.7225C273.444 23.8373 273.578 23.8948 273.735 23.8948C273.877 23.8948 273.985 23.8568 274.057 23.7809C274.132 23.7049 274.179 23.6095 274.2 23.4947H274.723Z" fill="#E7E7E7"/>
<defs>
<filter id="filter0_bd_138_217" x="0" y="-2" width="70.6909" height="70.9619" filterUnits="userSpaceOnUse" color-interpolation-filters="sRGB">
<feFlood flood-opacity="0" result="BackgroundImageFix"/>
<feGaussianBlur in="BackgroundImageFix" stdDeviation="1"/>
<feComposite in2="SourceAlpha" operator="in" result="effect1_backgroundBlur_138_217"/>
<feColorMatrix in="SourceAlpha" type="matrix" values="0 0 0 0 0 0 0 0 0 0 0 0 0 0 0 0 0 0 127 0" result="hardAlpha"/>
<feOffset dy="4"/>
<feGaussianBlur stdDeviation="2"/>
<feComposite in2="hardAlpha" operator="out"/>
<feColorMatrix type="matrix" values="0 0 0 0 0 0 0 0 0 0 0 0 0 0 0 0 0 0 0.25 0"/>
<feBlend mode="normal" in2="effect1_backgroundBlur_138_217" result="effect2_dropShadow_138_217"/>
<feBlend mode="normal" in="SourceGraphic" in2="effect2_dropShadow_138_217" result="shape"/>
</filter>
<filter id="filter1_bd_138_217" x="0" y="-2" width="70.6909" height="70.9619" filterUnits="userSpaceOnUse" color-interpolation-filters="sRGB">
<feFlood flood-opacity="0" result="BackgroundImageFix"/>
<feGaussianBlur in="BackgroundImageFix" stdDeviation="1"/>
<feComposite in2="SourceAlpha" operator="in" result="effect1_backgroundBlur_138_217"/>
<feColorMatrix in="SourceAlpha" type="matrix" values="0 0 0 0 0 0 0 0 0 0 0 0 0 0 0 0 0 0 127 0" result="hardAlpha"/>
<feOffset dy="4"/>
<feGaussianBlur stdDeviation="2"/>
<feComposite in2="hardAlpha" operator="out"/>
<feColorMatrix type="matrix" values="0 0 0 0 0 0 0 0 0 0 0 0 0 0 0 0 0 0 0.25 0"/>
<feBlend mode="normal" in2="effect1_backgroundBlur_138_217" result="effect2_dropShadow_138_217"/>
<feBlend mode="normal" in="SourceGraphic" in2="effect2_dropShadow_138_217" result="shape"/>
</filter>
<radialGradient id="paint0_radial_138_217" cx="0" cy="0" r="1" gradientUnits="userSpaceOnUse" gradientTransform="translate(14.4485 10.1603) rotate(46.3821) scale(61.1902 61.2966)">
<stop offset="0.085" stop-color="#D7263D"/>
<stop offset="0.695" stop-color="#02182B" stop-opacity="0.3"/>
<stop offset="1" stop-color="#01BAEF"/>
</radialGradient>
<radialGradient id="paint1_radial_138_217" cx="0" cy="0" r="1" gradientUnits="userSpaceOnUse" gradientTransform="translate(14.4485 10.1603) rotate(46.3821) scale(61.1902 61.2966)">
<stop offset="0.085" stop-color="#D7263D"/>
<stop offset="0.695" stop-color="#02182B" stop-opacity="0.3"/>
<stop offset="1" stop-color="#01BAEF"/>
</radialGradient>
</defs>
</svg>
